<?xml version="1.0" encoding="utf-8"?>
<!-- Generator: Adobe Illustrator 23.0.5, SVG Export Plug-In . SVG Version: 6.00 Build 0)  -->
<svg version="1.0" id="Layer_1" xmlns="http://www.w3.org/2000/svg" xmlns:xlink="http://www.w3.org/1999/xlink" x="0px" y="0px"
	 viewBox="0 0 800 800" style="enable-background:new 0 0 800 800;" xml:space="preserve">
<g>
	<path d="M772.1975098,494.008728c-5.9833374,0.3896484-12.0114136,0.091156-18.0201416,0.091156
		c-0.0298462-0.4464722-0.0597534-0.8930054-0.0895996-1.3395691c9.1328125-2.637207,18.2655029-5.2745056,28.3753662-8.1938782
		c-7.8918457-7.5508118-15.0253906-14.3762512-22.0534668-21.100708c-2.0603638,1.2999878-1.9605713,2.918457-2.3825684,4.3215332
		c-0.352417,1.1719971,0.6403809,3.4572144-1.8275146,3.045929c-1.8163452-0.3028259-3.2212524-1.6018982-2.4829102-3.8006897
		c1.9747925-5.8808289,3.5252075-11.9789124,6.2067261-17.525238c2.2938232-4.7444458,6.598877-7.1022034,12.2329102-8.2792664
		c10.12146-2.1145935,11.9428101-9.1567078,4.9726563-16.0091858c-3.2064819-3.1524658-6.3258057-6.4003296-9.355957-9.72229
		c-1.2755737-1.3983154-2.7249146-2.6551514,0.0668945-4.6306763c10.0298462-7.097168,9.5358276-17.2501831,7.0983276-27.6129761
		c-1.6534424-7.0297546-6.4397583-11.3292236-13.5631714-12.0929871c-6.7498779-0.7236938-11.9069824,2.4963989-15.8547974,8.024292
		c-1.2394409,1.7354736-0.9130859,5.2970276-4.9224854,4.836731c-0.1330566-0.9534912-0.3236084-1.8689575-0.3742065-2.7920227
		c-0.0682983-1.2471313-0.0854492-2.5028076-0.0258179-3.7500305c0.1968994-4.1168518-1.258667-6.9681702-5.8033447-6.9381104
		c-4.1862183,0.0276489-6.9194336,2.4238892-6.4019165,6.5643921c0.8560791,6.8500977-2.4401245,8.196167-8.1589966,7.381958
		c-1.225708-0.1745605-2.5172119-0.1702271-3.7442627-0.0007324c-4.5286255,0.6254883-5.0714722-1.7068176-4.1635742-5.3267212
		c1.5762329-6.2849731,3.2959595-12.5293579,6.0695801-18.4046021c8.7759399-18.5899353,22.8453369-31.934082,41.1004028-42.1977539
		c0.2243042,3.4486694,0.3815308,5.8675537,0.6353149,9.7705688c7.5109863-8.3327637,14.1627197-15.7121582,21.4885254-23.8395081
		c-11.8689575-3.1329651-22.3815918-5.907959-34.3998413-9.0804138c2.8153076,3.9315186,4.5261841,6.3208008,6.4759521,9.0434875
		c-32.4883423,9.907196-53.894165,30.9710693-65.1087036,62.7327881c-0.557312-5.2229919-0.4241943-9.9739685-0.5880127-14.7146606
		c-0.2579956-7.4645996,1.1851196-15.0713806-0.8695679-22.3749695
		c-4.5264893-16.0895386-16.8087158-22.72229-32.1051025-24.9509583
		c-14.7414551-2.1478577-30.6416016,5.7850037-37.692688,18.079071c-1.18396,2.0643005-1.2035522,4.8806152-4.3599243,6.5821838
		c0-6.7825623-0.213501-13.1568604,0.0754395-19.5082703c0.1906128-4.1884155-1.137085-5.6098938-5.4619141-5.5750732
		c-24.5076904,0.1971436-49.0175781,0.1137695-73.5266724,0.1750793c-0.5773926,0.0014648-1.1532593,0.5773926-1.9879761,1.0233154
		c3.3399048,3.2991333,7.4628296,5.7723389,7.1842041,10.9933167c4.0646362,10.2072449,3.6019897,21.118866,3.81427,31.6659241
		c0.6585693,32.7165833,0.3482056,65.4530029,0.3427124,98.1817932c-0.0003662,1.9475708-0.6251221,3.8951416-0.9592285,5.8427124
		c-2.2698975-1.0951233-3.2282715-2.7201233-3.616272-4.5321655c-0.083252,0.6346436-0.156311,1.2695618-0.2450562,1.9040527
		c0.2703247,10.1637878-1.0264282,19.9233704-6.1166992,28.9964294c-0.34729,0.6191711-0.6378174,1.2402649-0.8747559,1.8596191
		c-0.4484253-1.6348572-1.4458618-3.1959839-2.97229-4.6168213c-3.2438965-3.0196228-5.9063721-6.7557983-5.0196533-11.1986694
		c1.815979-9.0994568-2.1213379-19.930542,7.6477051-26.7930603c0.7830811-0.5501099,1.3955688-1.8786011,1.1008301-2.6870422
		c-3.9119263-10.7302246,3.5546875-19.9798279,3.8233643-30.1468506c0.102356-3.8714294-1.7114258-7.8321533,1.1613159-11.5784302
		c0.8529053-1.1121826,1.5397949-2.2981262,2.1216431-3.5284729c0.3807983-3.4109497,0.8737183-6.8173828,1.5387573-10.2171326
		c1.1296997-10.6417847,0.4771729-20.8056946-7.281311-29.276001c-3.9422607-4.3039551-8.4406128-7.8556213-14.0421143-9.4223328
		c-6.4536133-1.8052673-4.3770752-3.5502625-1.7680664-8.0655212c4.7334595-8.1921387,11.8444824-11.9147644,19.975769-14.8730774
		c-7.1918945-1.3110962-14.3966675-1.5120239-19.4694214-8.8014221c-3.7943726-5.4525146-13.9198608-5.9855652-18.1257019-0.9816284
		c-5.1520691,6.1297913-11.5567017,8.7883301-19.3065796,10.2649841c4.1876831,3.9604492,10.7789307,1.1882019,12.8995056,6.3563232
		c1.6833191,4.1023865,3.9413147,7.3058167,7.3808289,9.9733276c2.6827393,2.0808105,2.5456848,4.4388428-0.8596802,5.4587402
		c-11.9182434,3.5697937-19.4964294,11.138916-23.2180481,23.0881348c-0.5144348,1.651825-0.453064-1.3995056-1.3070679-1.7032166
		c0.0927429-7.2460632,0.7141113-14.5316162,0.1762085-21.7305908c-1.4480591-19.3805542-9.8624878-37.3131104-37.599884-35.6150208
		c-7.4754028,0.45755-15.002655,0.0688171-22.506073,0.0690002c-11.6376038,0.0000916-11.6313782-0.0010071-9.2831726,11.6014099
		c0.1974487,0.9754944,0.2786255,1.9807434,0.34021,2.9767456c2.7805786,44.9752197,2.5782776,89.967865-0.4704895,134.8955383
		c-0.7449646,10.9772949,1.0636292,23.3718872-9.1621094,32.9615784c8.4527893,0,16.9056702,0,26.0248413,0
		c-4.280426,5.9177551-9.0989075,7.0917969-15.0195923,6.9736938c-16.7511292-0.3339539-33.5190125-0.3676758-50.2677612,0.0193176
		c-5.8297119,0.1347046-9.7266846-2.0633545-14.050354-7.2289124c12.476593,0,23.8649902,0.0476379,35.2524719-0.0403137
		c2.2651367-0.0174255,5.5378113,0.9660339,5.5689697-3.0219116c0.0940857-12.0602722,0.0339966-24.1217041,0.0339966-37.9736023
		c-2.7636414,3.281189-4.1092834,5.0127258-5.5926819,6.6166382c-6.3159485,6.8291931-16.2987061,8.9871216-25.4894409,5.5660095
		c-9.4093933-3.502533-13.148407-9.0449219-13.175354-20.1579285c-0.0272217-11.2531738,0.3981018-22.5104675,0.2085266-33.7589722
		c-0.0926208-5.4963074,2.2076721-6.2187195,6.905426-5.3025208c6.8387146,1.3336182,11.6621704,5.294281,15.7584229,10.5645447
		c0.9638367,1.2400818,1.3651428,3.2646179,3.8903809,2.5887451c2.7025146-0.7232666,2.5462952-2.6176147,2.530365-4.6461792
		c-0.0769653-9.7541504-0.1254272-19.5085144-0.2068787-29.2626953c-0.0163879-1.9634094,0.3835144-4.2337646-1.9771729-5.1902771
		c-2.9277344-1.1863098-3.9241028,1.4074707-5.2168579,3.0955505c-3.8087463,4.973999-9.096344,7.6117249-14.7695618,9.7564697
		c-5.5324097,2.0915222-8.125885,1.1772461-7.6784973-5.6087036c0.7234192-10.9716187,0.6339111-21.9952087,0.9698792-32.9943237
		c0.3094788-10.1316528,5.3344116-16.1136169,15.2648621-18.3665771c10.1811218-2.309845,19.006897,1.4586182,23.2525024,10.2022095
		c0.8799133,1.8119812,0.9272766,3.7963867,3.7788696,3.4115601c3.101532-0.4184265,2.4288635-2.700592,2.4429626-4.5273132
		c0.0696411-9.0036316-0.2520447-18.020813,0.1481628-27.0072021c0.2222595-4.9894409-1.4091187-6.2733459-6.2749939-6.2445679
		c-33.2641296,0.196991-66.5320129,0.2863159-99.7937622-0.0599976c-6.278656-0.0654297-7.0621948,2.3572083-6.3722839,7.4327698
		c0.8904724,6.5515137,2.4124451,13.1894836-0.7420349,20.3093872c-1.8652039-7.5549927-2.7516174-14.505127-2.171936-21.4970398
		c0.4191589-5.0560913-1.4996643-6.5046997-6.3187866-6.2205811c-2.4598389,0.14505-6.7923584,1.9649048-6.8213196-3.0828247
		c-0.0245667-4.2568665-2.5796661-7.2839966-5.0829163-11.4647217c5.7243652,0,10.3925781,0.0003662,15.0608215,0
		c24.0111389-0.0021973,48.0221558-0.0052185,72.0332642-0.0063171c5.6388855-0.0002747,9.1555481-2.598175,9.2069397-8.4153442
		c0.0520325-5.8817444-3.4995422-8.4362183-9.1417847-8.4493103c-1.2505188-0.0029297-2.5011292-0.0088806-3.7516785-0.0088806
		c-91.7924652-0.0002747-183.5849304,0.0573425-275.3770447-0.1086731
		c-7.3744278-0.0132751-13.6643448,3.5614624-20.7156296,4.5315552c-4.5326385,0.6235657-6.8087616,4.8145447-7.7902908,9.1835632
		c-0.3948841,1.7581787-0.3649235,3.8155212-2.5442963,3.9979248c-6.3230858,0.52948-8.7149258,5.964386-12.5298119,9.6310425
		c0,2.5018616,0,5.0036621,0,7.5055237c3.9453545,12.9986572,3.9452629,12.9997559,17.8116302,14.2203979
		c0.746891,0.0657043,1.5000992,0.0779724,2.2377357,0.2201538c11.8221359,2.2794495,17.8434219,14.5066223,11.7388535,24.4803162
		c-5.8318176,9.5280457-9.3854942,19.8327026-11.7813644,30.6300659c-1.0519867,4.7407837-2.8575478,8.7487183-7.1517906,11.8005981
		c-5.1330299,3.6479492-5.0278492,7.0262756,0.0277596,10.5526428c3.4214706,2.3865356,5.2326202,5.4472046,5.5691414,9.2825012
		c1.36166,15.5187378,6.7169609,29.6402893,14.5340996,42.9500427c1.4296417,2.4342651,2.4394798,4.9137878,1.4257011,7.8171387
		c-1.9069824,5.4619446-11.2124939,12.2163086-17.3661728,12.546051
		c-12.7781944,0.6845703-14.1201572,1.7972107-17.0455933,14.1318665c0,2.5018921,0,5.0037537,0,7.5055542
		c4.81703,8.6624146,15.7135277,11.9402161,19.3074265,21.7871094c0.375,1.0274658,2.5825005,1.319519,3.8492432,2.0998535
		c5.1067314,3.1460571,14.6125221-0.3780518,15.1357689,9.8917236c0.0053139,0.1044312,1.8499031,0.4176025,2.6468163,0.1225586
		c2.4218025-0.8964233,3.7234497,0.630188,3.6222115,2.3525391c-0.4078026,6.9390259,5.0346298,5.2214355,8.0687256,4.8630371
		c4.7969666-0.5667114,2.901619-5.0379639,2.7044525-7.911499c-0.5948029-8.6652222,7.5717773-17.9775696,16.2817535-17.9882202
		c30.2582474-0.0369873,60.5171432,0.0734863,90.7743912-0.1124878c4.3393097-0.0266724,7.5940399,1.632843,11.0224762,3.7813721
		c11.1575165,6.9920654,22.9986115,11.7875977,36.539917,11.3075562
		c11.6535492-0.4130249,21.7844696-5.1166382,31.3784027-11.0348511c4.9127808-3.0305176,9.8147278-4.1168518,15.5033569-4.0493164
		c20.252655,0.2403259,40.5124817,0.2741089,60.7641296-0.0079651c6.7095642-0.0933838,12.4241028,1.4188232,18.3020935,4.8117981
		c16.3368225,9.4302979,34.1282959,13.685791,51.1509705,3.5924072c12.4011841-7.3530579,24.817749-9.0259399,38.4188843-8.3671875
		c7.4844666,0.3624268,15.0088806,0.2723694,22.5002136-0.0109253c4.7096558-0.1781006,8.504364,1.0275269,12.3781738,3.8629761
		c15.701416,11.4928589,33.211731,15.6238403,50.3594971,5.1813965c14.4381714-8.7922363,29.3027954-9.6549988,45.0586548-9.0066223
		c5.7418823,0.2362061,11.5588379,0.552124,17.2399292-0.0809021c8.8031616-0.9808655,15.4973755,2.062561,22.362854,7.5269165
		c33.1778564,26.4067993,62.5241699,29.8928223,95.9337158,6.4259644
		c17.0671387-11.9879761,33.5969849-15.0153809,52.6931763-13.8711548
		c4.2359619,0.2538757,8.5196533-0.2190552,12.7460327,0.1047363c4.8466797,0.3711548,8.8078003-0.8731384,11.8236694-4.7630615
		c0-2.0014648,0-4.0028992,0-6.0044556C781.4512939,495.0881042,777.2982788,493.6766052,772.1975098,494.008728z
		 M58.268734,293.3971558c0.9648514-4.8800659,4.4239769-3.2025146,6.9686394-3.2074585
		c48.2021866-0.095459,96.4053726,0.0571899,144.605896-0.2389221c5.7081299-0.0350037,7.1953125,2.8207092,8.5870209,7.69104
		c-0.1847992,0.3360901-0.5276337,1.2287292-1.1004486,1.934845c-0.7824402,0.9646912-1.7286835,1.7988892-2.6240082,2.6691895
		c-5.5516357,5.3962402-10.2505646,13.015564-16.8967133,15.5742493c-7.1423492,2.7497253-12.8500214-6.091095-19.6970825-8.966156
		c-33.4776001-14.0574646-65.5281296-12.0858154-96.079567,7.6463623c-4.7141418,3.0447388-7.401825,3.0938416-10.9419403-1.1412048
		c-3.3486328-4.006012-7.0259018-7.9187622-11.2000351-11.0048828
		C55.1851616,300.8753967,57.4735603,297.419281,58.268734,293.3971558z M190.3257751,368.1521912
		c-36.1925964-6.5525208-72.1238861-6.2506104-108.2067184-1.2050781
		c4.5932999-15.3479614,27.5943909-30.8908081,46.7332382-31.8920288
		C156.961319,333.5845642,181.3127136,346.4651184,190.3257751,368.1521912z M45.9206047,315.5960083
		c-3.0362053-3.3444824-5.4794464-5.1872559-10.5894775-2.616394c-6.4302788,3.2351074-12.9926758-1.7107239-12.8367386-9.5197144
		c0.4396858-3.8840637,2.8871403-7.0328674,7.8224506-7.4631042c3.9182339-0.3415833,6.5700932-0.9795227,5.9777699-6.0481567
		c-0.4344635-3.7172852,1.692318-6.5900574,5.4476509-8.0158386c3.8061829-1.4452209,6.9993362-0.1020813,9.5396004,2.4295654
		c2.6647758,2.6556396,3.7318764,6.348114,1.4178238,9.568573c-4.4681396,6.2179871-1.6067467,10.0706177,3.29879,14.0154419
		c3.6790123,2.9584961,6.8890228,6.5015564,10.2968369,9.7958374c5.723526,5.5328674,4.9969788,9.5529785-2.0569611,13.6539917
		c-2.7512703,1.5994263-3.5932617-0.5250549-4.8324242-1.7720032
		C54.833889,325.0235596,50.2789841,320.3970032,45.9206047,315.5960083z M42.7224159,392.901123
		c45.5076256-18.0278625,92.5385437-19.1896057,140.2655792-12.5653687
		c15.6022949,1.6616211,30.5302734,5.8970642,46.3916779,11.5153198c-6.0876312,3.4967651-11.725296,4.0729675-17.0046387,5.6405029
		c-4.8541412,1.4411926-8.4870758,2.4161072-10.5580597-5.0440674c-2.0877533-7.5202026-10.8028564-7.8161316-17.5429993-9.3194275
		c-3.1315765-0.6984253-6.5079651-0.0879517-9.5596619-1.4970703c-26.2279663-0.0637817-52.4729691-1.1621399-78.6594315,1.2987061
		c-7.2347107,0.6798096-14.3296051,1.8881226-20.8067932,5.4503174c-0.4356537,0.2395935-1.0000381,0.4657898-1.2135086,0.8569946
		C65.2995834,405.2445679,53.2538033,392.6348877,42.7224159,392.901123z M238.0042572,389.822052
		c-2.5254211-0.2773438-3.4671021-2.2543335-3.8743591-5.4151306c-2.0768433-16.1156616-8.0989532-30.7481689-17.7440033-43.7803345
		c-2.2164001-2.9945984-2.5134277-4.7526855,0.327713-7.4199524c4.9112244-4.6105957,9.405014-9.6633606,14.1407776-14.4647522
		c1.3421478-1.3607178,2.5041656-3.7794189,4.7365875-3.0115356c2.4815369,0.8535156,2.338974,3.6900024,2.3485107,5.7734375
		C238.0430145,344.2015381,238.0042572,366.9000244,238.0042572,389.822052z M238.0222168,395.4645691
		c2.6639404-0.0142822,1.8348694,2.5487976,1.7993164,4.0500793c-0.6110077,25.8287659-1.8722534,51.6056824-6.3452454,77.7392883
		c-5.9978333-5.8205566-11.4034424-11.1885986-16.9591064-16.3963623c-2.1408997-2.0068665-0.8327332-3.4846191,0.3168182-5.0513
		c12.1816559-16.602356,17.4995728-35.5039978,18.7597198-55.7771912
		C235.7115479,398.1335449,235.1312256,395.4800415,238.0222168,395.4645691z M209.9572601,487.5139465
		c1.7407837,1.687561,4.0147095,2.8251953,5.3135223,5.2917175c-11.508255,0.2720032-23.677536,5.5783081-31.5487366-7.1353149
		C197.8408356,475.6973877,197.8054657,475.7338562,209.9572601,487.5139465z M56.3528595,486.1032715
		c-4.4668541,4.2340393-9.4940643,7.4225159-4.4827957,15.3453979c3.347805,5.2929077-1.0186348,11.088623-7.3309097,11.7739258
		c-6.0141411,0.6530151-9.3875999-2.7988892-8.6909218-8.369873c0.7332382-5.8633423-3.0655212-4.908844-6.1824455-5.6133118
		c-5.2740326-1.1920471-8.7710876-4.3694458-8.0058765-9.9285278c0.6516953-4.7345581,3.6710434-8.1343994,8.9349976-8.5133362
		c13.8517094,6.9075317,17.703886-6.4313049,24.5634975-12.6140137c4.7889938-4.3164368,7.1299858-5.5732727,11.901844-0.1091309
		c3.3320541,3.8153381,2.6197968,5.3791199-0.5029907,8.1040955
		C62.9874535,479.2934875,59.7969589,482.8386536,56.3528595,486.1032715z M68.3269958,515.8518066
		c-1.1600952,0.5423584-3.4648972-1.7684937-3.2959518-3.1409912c0.3677673-2.9881897,2.6608353-5.3904724,5.3743591-6.2811279
		c2.0727234-0.6802673,1.6309357,2.4516602,2.8386688,3.6097412
		C72.8742065,513.0184937,70.5905685,514.7937012,68.3269958,515.8518066z M79.664093,504.9677124
		c-1.231926,1.0858765-2.257431,1.7306213-3.3709869-0.3623657c-3.3509216-6.2985229,3.7639465-6.9448242,5.5937881-11.7872314
		C86.3077545,498.9863586,83.0353546,501.9960938,79.664093,504.9677124z M56.6787529,493.7154541
		c4.745842-6.4999084,10.884861-11.0639954,16.105114-16.48526c1.677475-1.7420654,2.9404602-0.8980408,4.4753799,0.2354736
		c2.3903732,1.7651672,4.9349442,3.3215027,7.9131546,5.2974854
		C74.3422318,494.9446411,74.3422318,494.9446411,56.6787529,493.7154541z M75.0279236,412.6408081
		c-3.6349487-16.5587158-0.6004791-20.9584045,16.2592163-23.6374817
		c16.5796127-2.6344604,33.2939987-2.8351135,50.0215759-2.8043213c15.7293854-0.0939941,31.4528046-0.1334839,46.9832611,2.9674072
		c7.1447449,1.4265137,10.3030701,5.0065918,9.9669189,12.9676514c-1.2592316,29.8213196-25.295639,55.9251404-54.871582,58.730835
		C109.6692886,464.063446,82.0368729,444.5701294,75.0279236,412.6408081z M161.4953308,472.8068542
		c-2.1255035,2.3599548-4.3936462,4.2580566-8.4669037,2.3971558
		C155.5862732,472.1575623,158.6949615,472.9814148,161.4953308,472.8068542z M157.0063934,463.0890808
		c2.5206604-0.4745178,2.0215149,2.3062439,3.1640167,2.7677307c0.4277802,2.823761-1.3779755,2.5921326-2.7316589,2.9054871
		c-2.4414978,0.5651855-2.909317-0.9416809-3.098053-2.8578186
		C154.142807,463.89505,155.5923309,463.3552246,157.0063934,463.0890808z M150.8557434,481.2652588
		c0.0226288,0.1790161-2.1651764,1.1036682-3.1066742,0.8559265c-3.7538605-0.9881287-2.8243713-4.1322632-3.355957-7.4935608
		C148.1402893,476.1143494,150.4256744,477.859375,150.8557434,481.2652588z M142.5632782,468.6650696
		c-0.1725311-3.5013428,2.4510193-2.9798584,4.7346649-3.247467c2.1472015-0.4713135,3.1696014,0.8765259,2.9847107,2.8375549
		c-0.2859497,3.03302-3.1280975,2.4541626-5.0575409,2.921875
		C143.3587189,471.6294556,142.6493988,470.4127502,142.5632782,468.6650696z M134.7782898,474.8980103
		c4.7988892-0.0230103,5.4200745,3.1734619,5.604599,6.1894226c0.2657013,4.3427124-3.5358124,2.3321838-5.4879608,2.395874
		c-1.954071,0.0635681-5.3487091,1.5474548-5.4309845-2.43573
		C130.609024,478.214386,130.1893158,474.9200134,134.7782898,474.8980103z M132.184433,468.9726563
		c-0.0422363-2.0338745,0.8049774-3.2137756,2.9501801-3.2202759c1.8773804-0.0933533,3.4304352,0.2628479,3.4753418,2.5976257
		c0.0381012,1.9784546-0.705658,3.2404175-2.9269104,3.2109985
		C133.8661194,471.5370178,132.2341766,471.3709106,132.184433,468.9726563z M125.3395691,470.6953735
		c-1.7291489-0.7823486-5.0888672,0.874176-5.0169449-2.7435608c0.0377502-1.8960876,1.2716904-3.2649841,3.513916-2.664856
		c1.9000244,0.5083923,4.8738327-0.6734314,4.9179001,2.9264221
		C128.6322174,470.5009766,127.3262634,471.5942688,125.3395691,470.6953735z M125.6274414,474.3517761
		c-0.5980072,5.5234985-0.7837219,10.1604004-7.9256134,5.7060242
		C119.4347305,477.2156372,122.1465073,475.9862671,125.6274414,474.3517761z M116.8919907,465.6734924
		c-0.0469055,2.159668-1.3117218,3.0493164-3.3893967,2.9161072c-1.2742538-0.1145325-2.7236938-0.380249-2.5325699-1.9468689
		c0.2108154-1.7278442,1.1319656-3.4256592,3.1257172-3.6061707
		C115.7373962,462.88797,116.9316635,463.842926,116.8919907,465.6734924z M96.9173889,489.1029968
		c-0.3363342,0.6168823-0.9830856,1.088562-1.5486603,1.5522461c-1.8813248,1.5422363-3.7904205,3.0505066-5.7591553,4.6281128
		c-2.4341736-5.5870972-0.3567734-11.0351257,4.5348358-12.9725342c1.0791931-0.4274902,1.8949814-0.5869141,2.4425964,0.4790039
		C97.6302872,484.8203125,98.0824356,486.9662476,96.9173889,489.1029968z M103.9075623,484.8551331
		c-4.5124817-6.1493835-2.7721558-9.3066101,1.771843-12.0728149c2.2458878-1.3672485,3.5544128-1.3560791,4.5869751,1.0503235
		C113.1635056,480.5839539,105.3906174,479.8857422,103.9075623,484.8551331z M157.7764587,492.8732605
		c-6.3748474,5.8270569-13.4063416,10.3239746-24.3418732,10.3522949
		c-9.3327103,0.1505127-17.2815094-6.170166-24.8327637-13.2728577c-0.8965073-0.8432922-1.9972305-2.0245361-0.6226501-3.0718384
		c1.6485214-1.2558594,2.9519119-3.450531,5.7666702-2.3907471c13.2537079,4.9903564,26.7581711,5.2622986,40.3250351,1.5498352
		c2.9983673-0.8204651,4.1675415,1.0177307,5.474411,2.693634
		C161.20755,490.8653259,158.8949585,491.8508911,157.7764587,492.8732605z M159.5533447,480.8755798
		c6.5200653-5.684845,10.0786896-1.795929,13.40625,3.023407
		C165.9863739,488.5314941,165.9863739,488.5314941,159.5533447,480.8755798z M182.0426483,496.0740356
		c-6.3201447,5.1323853-7.3069916-2.4041138-10.9755554-4.0130615c4.7354889-4.7822266,8.5697021-3.2691956,12.143631,0.7286377
		C184.7965698,494.5635681,183.2066956,495.1286011,182.0426483,496.0740356z M183.4465485,501.9076843
		c5.3460541-6.4969788,8.8422852-2.0583496,12.5703125,1.0361328
		C190.9592285,508.3190002,190.9592285,508.3190002,183.4465485,501.9076843z M196.8399811,510.9407959
		c3.8282623-6.4606934,8.0588226-3.9709167,12.3955841-1.013031
		C205.0852509,517.4508057,201.0702667,513.4957886,196.8399811,510.9407959z M211.082901,517.4936523
		c2.2907867-6.3026428,6.4678497-5.9104004,11.1529388-4.9388428
		C221.5169067,521.5462036,216.199173,518.2884521,211.082901,517.4936523z M236.7631683,515.2408447
		c-1.3895264,5.5158081-6.5016632,2.5100098-10.3119659,5.635437c0.1831512-7.2271118,3.1521149-9.0541077,7.7480621-9.1853027
		C236.8993073,511.6140137,237.1390839,513.7484131,236.7631683,515.2408447z M242.145401,514.6843262
		c-0.3214111-0.06604-0.7752075-2.1409912-0.372345-2.6337891c2.1963196-2.6869812,4.9486847-1.2749329,8.5537567-1.0411987
		C247.4918976,513.7149658,245.2589264,515.324646,242.145401,514.6843262z M243.318512,501.0575256
		c-5.4356537,0.424408-7.24617,7.243866-13.0231018,6.3409729c-1.2027893-0.1880188-2.4809875,0.1059875-4.9322815,0.2477417
		c-4.6544952,0.8424377-5.8575745-2.2131958-2.9589844-6.2741699c3.6143341-5.0636597,1.3078003-7.7528076-2.3196411-10.9996643
		c-5.1960602-4.6508179-9.9743347-9.7652588-15.1036072-14.4945984c-5.6242065-5.18573,1.3022003-6.2969971,2.8703766-9.036438
		c1.8361664-3.2075195,3.9873199-3.7258301,6.7791748-0.4621277c3.3926086,3.9659729,7.2919617,7.4983826,10.9711609,11.2192688
		c0.525528,0.5314941,1.4755402,1.0444946,1.5059662,1.6051941c0.6276855,11.5705566,9.3800812,6.8940735,15.3871765,7.8417053
		c3.4554596,0.5451355,8.6984253-2.4088135,9.478302,4.0323792
		C252.7340546,497.3623047,248.7551575,500.6330566,243.318512,501.0575256z M251.769928,303.2615356
		c-0.9332428,2.5259705-3.4255829,1.4480591-5.240036,1.4986572c-5.2375641,0.1460266-10.4819183,0.0516663-17.908844,0.0516663
		c4.1309814,3.8340149,3.1201324,6.1585388,0.4188843,8.7000732c-5.0902405,4.7892761-10.2695313,9.5871582-14.6521912,14.9968872
		c-4.6031952,5.6819153-6.5765991,1.0900879-9.8029175-1.3178711c-4.5748749-3.4146118-2.8083496-5.6989746,0.4101868-8.6243286
		c5.1730652-4.7017517,9.9207306-9.8760986,15.1494141-14.5109253c3.734726-3.3106079,5.6691895-6.1842651,2.2108917-11.0875244
		c-2.4278412-3.4423523-2.4076843-7.5431824,1.0459442-10.9104919c2.8165894-2.7461548,6.2116699-3.3029175,9.6996613-2.1046143
		c3.3406525,1.1477356,5.5492554,3.9306946,5.1659088,7.446991c-0.512146,4.6980896,1.2454071,6.0335693,5.6777191,6.1208801
		c1.9888916,0.0392151,4.1870422,1.5731201,5.8493195,2.9580383
		C251.7931061,298.1446533,252.7203979,300.6890259,251.769928,303.2615356z M268.6172485,488.1070862
		c-2.5221252,1.4862671-4.9870605,3.0856018-7.5932922,4.4061279c-1.1234436,0.5693359-2.4992371,2.3612366-3.7705383,0.5378113
		c-0.6221924-0.892395-0.4489441-2.3885498-0.5020142-3.6172791c-0.0842896-1.9518738,1.1990356-2.4861145,2.8616028-2.5619812
		c2.9755554-0.1357727,5.9504395-0.2863159,8.9256287-0.4306946c-1.9307861-10.4343567-3.7155457-20.8725891-1.2542725-32.6153564
		c3.3934326,9.8182983,6.5510254,18.3908386,9.3053284,27.0909119
		C279.0463867,488.6766968,271.7399597,486.2033081,268.6172485,488.1070862z M284.2652893,492.6902161
		c-1.2995605,0.1612549-2.5202942,0.0959167-2.3999939-1.6637268c0.1129456-1.6534729,1.0558167-2.6266785,2.7731628-2.7597046
		c1.3815308-0.1069946,2.4645691,0.3187561,2.5150452,1.8450623
		C287.2160034,492.0035095,285.7916565,492.454834,284.2652893,492.6902161z M294.9944763,489.7412415
		c-1.3537903,0.4127502-2.4793396-0.0666199-2.4761353-1.5777893c0.0049438-2.2919006,2.0205078-2.412384,3.6477661-2.7588806
		c1.4524536-0.3092346,2.3671875,0.3548584,2.44104,1.8568726
		C298.7358704,489.8809509,296.752655,489.619751,294.9944763,489.7412415z M308.5312805,310.0990906
		c10.8698425,20.5704041,9.4603577,156.3988037-1.7542419,169.8547058
		C303.3594055,423.0802002,302.6562195,367.5646362,308.5312805,310.0990906z M308.6828308,487.276825
		c-0.3461609,1.442749-1.3847656,2.0352478-2.7512817,1.8819885c-1.4715881-0.1651917-2.1400757-1.147644-1.8830566-2.6012878
		c0.2760315-1.5611267,1.6014099-1.6602478,2.6044006-1.8600769
		C308.3814697,484.9347534,309.04776,485.7561035,308.6828308,487.276825z M317.1725464,489.9447327
		c-1.5124817-0.1684875-3.5908813-0.0359192-3.4503174-2.7058411c0.145752-2.7695923,2.112854-2.0756531,3.7513733-2.1856079
		c1.1419678,0.3989258,3.3919678-0.6855774,3.1003418,1.7440186
		C320.3737488,488.465332,319.2561646,490.1766968,317.1725464,489.9447327z M326.5322876,492.6763916
		c-1.2473145-0.1418457-2.6837463-0.5273743-1.861084-2.209259c0.808197-1.6523743,1.4407349-3.9983826,4.0266418-3.4266052
		c1.2340088,0.2729492,2.3047791,1.2836304,3.5041809,1.9924927
		C330.5184326,491.301239,329.0889587,492.9671021,326.5322876,492.6763916z M336.6797791,497.3608398
		c-1.0240173,0.15979-2.842865-0.1422729-2.7903748-1.6261597c0.0912476-2.5767517,2.5112305-3.4859924,4.4229736-4.1560974
		c1.198761-0.420166,2.6862183,0.70401,3.4138489,2.2289429
		C340.6397095,495.813385,338.8447876,497.0231323,336.6797791,497.3608398z M351.8862915,504.5214233
		c-4.9379578,3.8311157-6.511261-1.8334961-9.7970581-2.9329529c3.0924683-5.4281311,6.1567993-3.8878174,9.5774536-0.9952698
		C353.4074707,502.0652771,353.716217,503.1015015,351.8862915,504.5214233z M369.5815735,513.293457
		c-1.1311646,1.5896606-2.5843506,2.2072144-4.5247803,1.2894287c-3.3312073-1.5757446-6.7022095-3.0674438-10.9487-5.0004578
		c4.1873169-2.9091187,14.60849-1.4537354,16.193512,1.1969299
		C371.0654602,512.0568237,370.0811768,512.5913696,369.5815735,513.293457z M382.4620972,514.6265869
		c0.1494446,3.2277222-1.7270508,3.4876099-3.8822327,3.288147c-1.6537476-0.1529541-4.3248291-0.0535889-4.0722351-1.9671631
		c0.2500305-1.8948975,2.1408997-3.8643799,4.7679138-3.8578491
		C381.1749268,512.0942993,382.8085938,512.46875,382.4620972,514.6265869z M393.6516113,513.4370117
		c0.2220764,2.7014771-1.7341919,3.5662231-4.138031,3.9050293c-2.3589478,0.3325806-2.0770569-1.4833374-2.2342529-2.8949585
		c-0.3405762-3.0571594,1.5193176-3.7892151,4.069397-3.9864502
		C393.5039978,510.2937927,393.9234314,511.390564,393.6516113,513.4370117z M399.8496094,513.4708252
		c-0.0834656,0.0043945-0.6836548-1.9684753-0.3078308-2.5003357c1.6662903-2.3580322,3.9529419-1.4343262,6.4541931-1.0563965
		C404.4545593,512.5888062,402.2912903,513.3456421,399.8496094,513.4708252z M519.8671265,363.2745056
		c9.1094971,7.0786743,9.1224365,17.8419495,0,25.2666931C519.8671265,379.98349,519.8671265,371.7943726,519.8671265,363.2745056z
		 M496.0375671,363.5003357c0,8.4617004,0,16.0888062,0,24.5048828
		C488.7981873,379.4759827,488.7460632,372.7021484,496.0375671,363.5003357z M434.9212341,492.0256042
		c-1.8223267,3.8153381-5.2076111,0.7559509-7.8823547,1.3052368c1.879303-2.8108215,4.2220459-4.3799133,7.2322998-4.5110474
		C434.4716492,488.8110962,435.3154907,491.2001953,434.9212341,492.0256042z M436.5780945,412.6900024
		c-3.3301086-1.1761169-1.665741-4.778717-1.679657-7.2380066c-0.1338806-23.4743958,0.0556946-46.9512939-0.1755676-70.4241333
		c-0.0581665-5.9033813,1.6967163-7.0141602,6.9256897-4.6896667c5.428772,2.413269,8.1331177,6.2981567,8.1289978,12.1746826
		c-0.0064087,8.990509-0.0016479,17.980957-0.0016479,28.963562c-0.5831604,8.7107239,0.9351807,19.4578552-0.7687683,30.1481323
		c-0.4900818,3.0744019-1.3581848,5.8360291-3.6924133,7.947876
		C442.8360291,411.815033,439.813385,413.8326111,436.5780945,412.6900024z M442.0224609,492.4708862
		c-2.352356,0.4163208-2.0891418-1.5137634-2.1511536-2.9231567c-0.098877-2.2416687,0.6987915-3.9143066,3.1732483-4.2796631
		c1.87146-0.2762451,2.862793,0.4536133,2.6763306,2.3100891
		C445.9139404,490.3999939,444.5551147,492.0227661,442.0224609,492.4708862z M452.5270996,491.3065796
		c-2.7841797-1.2934265-2.5551147-3.4942322-1.3587341-4.7511597c3.2928162-3.4593201,6.6607056-0.9390259,10.2400208,0.2591858
		C459.3358459,490.9952393,457.2994995,493.5235901,452.5270996,491.3065796z M464.0487976,496.7156372
		c-2.5853271-2.6344299-0.7148132-4.030365,0.8127747-5.2960205c5.1268921-4.2472229,6.7210693,1.8304138,10.3596802,3.2809448
		C471.5984192,498.4225464,468.7160339,501.4713745,464.0487976,496.7156372z M483.9901428,507.2662659
		c-5.4114685,4.8891296-7.1799011-2.0696106-12.7019653-2.9777527c4.7217407-2.2814331,6.4508972-8.250946,10.8770752-2.6931763
		C483.4046021,503.1515198,487.2540283,504.3173828,483.9901428,507.2662659z M494.131958,516.6848755
		c-2.458252-1.0354004-6.4483337-1.0907593-7.330719-4.3585205c-0.4796143-1.7760315,2.6708374-3.9801636,4.835907-2.9717712
		c2.5093994,1.1686096,6.5950928,0.1313782,7.3253174,3.5834656
		C499.2669983,514.3777466,497.5536194,517.1912231,494.131958,516.6848755z M506.7937927,519.0959473
		c-1.6071777-0.4373169-4.3429871,0.3838501-3.6900024-2.3690186c0.6375122-2.6876831,2.377655-4.8483887,5.8565674-4.6591187
		c2.2698059,0.1235352,3.9815979,0.4008789,3.8444519,3.2090454
		C512.5963745,519.5466309,509.0190735,518.2668457,506.7937927,519.0959473z M520.3374634,516.2723999
		c-2.8387451,0.4807739-2.4584961-1.3670654-2.5655518-2.7695313c-0.1772461-2.322113,0.6097412-3.8655396,3.2305298-4.0105896
		c2.3545532-0.130188,3.1152344,1.296814,3.1456299,3.235321
		C524.1912231,515.4725342,521.4936523,515.2630615,520.3374634,516.2723999z M492.3394165,490.3770752
		c-5.0542297-0.0239868-10.1407166-0.5126953-14.1746826-3.8866272
		c-8.4069824-7.0314941-18.2155762-10.3857117-28.9186707-10.8833923c-6.2473145-0.2905273-9.1557922-3.310791-9.8581543-9.025238
		c-0.7006226-5.6996155-0.7408447-11.4565735-1.450531-17.1722107c-0.5724487-4.6098022,1.8405457-7.5404358,6.3936462-8.7584534
		c3.1386108-0.8396912,6.3237-1.5122681,9.407196-2.5619812c13.9579773-4.7512512,23.7729187-12.9857178,25.0762024-28.3804932
		c0.2296143,2.2688904,0.9205017,4.4047546,2.3374329,5.9827271c4.3480225,4.8423157,3.6791687,9.3742981,2.2321472,14.5186157
		c-1.2793884,4.5481262-1.0073853,8.3381653,3.9930725,10.638031c3.3861084,1.557373,4.0416565,4.8396606,4.1660767,8.2310791
		c0.1556396,4.2434692-0.1106873,8.506134,0.6601257,12.7214661c0.8302612,4.5414429-0.8785706,7.8112793-5.0554504,9.7742615
		c-3.2265015,1.5162964-6.1142578,3.5270081-8.0887756,6.5084229c-2.9337769,4.4298401-0.8577576,9.1583557,4.3568115,10.1689453
		c2.49823,0.4841003,5.121582,0.5046387,7.3876343-0.5838013c9.9188232-4.7642517,19.4932251-6.8571472,29.3398743,0.6370239
		c2.8573608,2.1746216,7.475708,2.8038635,10.0183716-1.2999878c0.2763062-0.4460144,0.4976807-0.8912048,0.6859741-1.3352051
		c0.5307617,1.7148743,1.8859253,3.3092346,4.3989868,4.6669617
		C520.3469238,490.4848328,506.342926,490.4436951,492.3394165,490.3770752z M757.0214233,444.2372742
		c-2.9578247,0.7753906-4.3019409-1.4533691-7.4871216-4.2293701c4.164978,0.3783875,7.1083984-1.4877319,8.6867065,1.9281311
		C758.5981445,442.7521973,758.1502075,443.9413452,757.0214233,444.2372742z M745.9360352,430.6380615
		c0.0427856-1.3870239,0.4203491-2.6999512,1.9697266-2.1296997c2.3178101,0.8529663,5.7764893,0.3052673,6.0410767,4.2664795
		c0.1165771,2.369751-1.7196045,1.7302551-3.0078735,1.6405334
		C748.5177002,434.2467041,745.8230591,434.3005981,745.9360352,430.6380615z M756.9308472,411.2524109
		c2.250061,1.1495361,4.5257568,2.1181641,3.1290894,4.7414246c-0.3341064,0.6276855-1.9998169,1.2616272-2.5022583,0.9636536
		C755.0408936,415.4653625,757.1764526,413.1964111,756.9308472,411.2524109z M763.2249756,433.5690918
		c4.6904297-2.3944092,7.5665283-3.8625183,12.1591187-6.2069092
		C772.430603,433.1821899,769.3682861,434.5600586,763.2249756,433.5690918z M762.013855,420.8102417
		c3.6987915-0.4018555,6.5855713,1.5621033,6.2092896,3.5551453c-0.7252808,3.8425293-5.3341675,3.8277893-8.2944946,4.5287781
		c-3.1990356,0.7574158-3.4819336-2.8193359-3.3616333-5.1462097
		C756.7938843,419.3564758,760.6560059,421.6169434,762.013855,420.8102417z M756.0644531,387.5561829
		c3.1430664-0.1924133,3.8875732,2.2528381,4.3334961,4.2037964c0.5273438,2.3069153-0.958374,4.9739075-3.0170898,5.1355286
		c-2.2262573,0.1746216-4.7370605-1.9850464-5.2937012-4.184967
		C751.401062,389.9991455,754.0042725,388.64151,756.0644531,387.5561829z M748.9334717,398.5742493
		c2.4580688,1.2848816,5.0998535,2.5592346,5.5609131,5.4272156c0.1998291,1.2431946-0.4013062,4.1068115-2.3477173,3.7854919
		c-2.2381592-0.3694153-5.1206055-1.5250244-5.4827271-4.1761475
		C746.4585571,402.1073303,746.8341064,399.7169495,748.9334717,398.5742493z M746.99646,411.2968445
		c3.6184082,0.4968567,5.7960815,3.3388977,4.9926758,7.5640564c-0.4073486,2.1425476,1.0168457,5.1452332-3.375061,4.7093811
		c-4.9888916-0.4951172-3.9871826-3.9881287-4.1265869-7.171936
		C745.2767944,414.6788025,743.0587158,410.7561951,746.99646,411.2968445z M746.2759399,457.1488647
		c1.187561-0.5664063,4.5628662,1.4461365,3.942627,4.1231995c-0.7345581,3.1704102-2.3929443,6.1268311-3.7078247,9.3140259
		c-2.635437-1.4524536-4.8166504-3.0502319-4.6900024-5.0908813
		C742.0217285,462.2540283,743.1889038,458.6209412,746.2759399,457.1488647z M723.4989624,399.4483032
		c3.8562012,0.2232056,4.3045044,1.8120728,4.4238892,5.0327148c0.3748169,10.1112976,1.6248779,11.0349426,11.7666626,9.4802246
		c-0.1146851,8.9857483,0.4208374,17.6886902,3.9466553,26.2900085c2.2106323,5.3924866-1.656311,11.1671143-4.142395,16.1016235
		c-1.836853,3.6454773-3.6865845-0.6392517-4.7421265-1.788147c-10.8122559-11.7693787-17.7168579-25.6661682-21.6682739-41.0873413
		c-0.1228027-0.4790649-0.1025391-0.9938049-0.2131348-1.4772644
		C709.9135742,399.0738525,710.388916,398.6897888,723.4989624,399.4483032z M647.3046265,340.6396179
		c3.4387817-1.7174377,7.6081543-1.8058472,8.3164063,2.772522c1.2124023,7.836731,2.3981323,15.8108215,0.2532349,23.802124
		c-0.8554688,3.1871948-3.4520874,4.7615051-6.4597168,8.5180359c10.5484619,0,19.7072754,0.3136292,28.831665-0.1108704
		c6.022583-0.2801514,9.0584106,0.4078979,7.8014526,7.8241882c-1.1115112,6.5592041-0.670105,13.4697571-0.2108154,20.177002
		c0.3261719,4.7619629-1.2216797,6.0707703-5.7850952,5.928009c-9.213501-0.2882385-18.4424438-0.0859375-28.9511719-0.0859375
		c4.6645508,9.6962891,4.9554443,19.2722473,5.1578369,28.8567505c0.1064453,5.0393066-0.4700317,10.3691406-6.7901611,10.433075
		c-6.2220459,0.0629578-7.0775146-5.1276245-7.0762329-10.2189636c0.0078125-29.2494202,0.0301514-58.4988403-0.0227661-87.7481689
		C642.3614502,346.5066223,643.2555542,342.6618652,647.3046265,340.6396179z M612.3859253,455.9333496
		c1.2733765,3.3833313,1.7885132,4.6793213,2.2515869,5.9937744c6.4440308,18.2919312,20.9676514,28.2770691,37.1844482,25.5563965
		c21.9819336-3.6879883,35.6015625-18.2146606,35.7809448-38.2584534
		c0.0782471-8.7416687,0.0132446-17.4846191,0.0132446-26.2645874c2.3422241-0.3032837,2.2954102,1.4456787,2.7422485,2.714325
		c6.6968384,19.0147095,18.5708008,34.0286255,35.3292847,45.1077271c3.8164063,2.5232239,4.4941406,4.2124023,1.8699341,8.5562134
		c-6.4446411,10.66745-14.1865845,15.7772217-27.6848755,15.1487732c-27.68573-1.2890015-55.4755859-0.5679321-83.2175903-0.2481995
		c-6.2349243,0.0718384-11.0249023-1.8115845-15.3650513-5.8898926c0.3847046-0.4761353,0.6461792-1.1118164,0.953125-1.1344299
		c10.1415405-0.7492676,10.1422729-0.7406616,10.1427002-11.3216248
		C612.3861084,469.9654541,612.3859253,464.0375061,612.3859253,455.9333496z M695.3630981,509.9080505
		c-17.4020386,14.110199-39.8734741,14.3818054-59.6898193,0
		C656.0397949,509.9080505,675.5675659,509.9080505,695.3630981,509.9080505z M570.1155396,489.3937988
		c-0.4644165,1.5046997-0.8208008,3.5260315-2.7355347,3.7823792c-1.9501953,0.2612-2.1672363-1.5739441-2.1703491-3.0673523
		c-0.0040283-1.9047852,0.571228-3.3834534,2.9371338-3.2259521
		C569.6895142,486.9855652,570.2565308,487.8129883,570.1155396,489.3937988z M567.5570679,440.8986206
		c-0.279541-11.9917297,0.0272827-23.9960022-0.1235352-35.9923096c-0.0528564-4.2068176,0.7370605-5.9324951,5.5375366-4.45401
		c6.6060181,2.0346069,12.4902954,4.9698486,17.0472412,10.1904602c1.5741577,1.8033447,2.9977417,3.3544922,5.6289063,2.4312439
		c2.7335815-0.9592896,1.675415-3.3293152,1.6958008-5.0970459c0.1121826-9.7471924,0.0774536-19.4964294,0.0369873-29.2447205
		c-0.0089111-2.1548462,0.6477661-4.7020569-2.2137451-5.7383728c-3.0728149-1.112915-3.960022,1.5667114-5.0189209,3.3314819
		c-3.9420776,6.5697327-10.1503906,9.1973267-17.2424927,10.6292419c-3.7449341,0.7561646-5.5563965,0.0225525-5.4846191-4.3077087
		c0.1989136-11.9948425-0.116333-23.9994812,0.1535645-35.9917603c0.2054443-9.1262817,5.5839844-15.3097534,14.4954224-17.6070251
		c9.6710205-2.493103,18.2138062,1.7931824,23.9927368,7.8967285c6.9943848,7.387085,6.0608521,15.5490723,6.0870361,24.020752
		c0.034729,11.2481384,0.0085449,22.4965515,0.0089111,33.7447815c0.0004883,14.9976807,0.0407715,29.995575-0.0131836,44.9930725
		c-0.0383911,10.650238-10.1141357,19.7268677-21.9360962,19.8858337
		C577.1119385,459.7653503,567.8231201,452.3128662,567.5570679,440.8986206z M578.2654419,491.1132507
		c-1.293335-0.1407166-3.4664307,0.425293-2.8235474-2.0683289c0.5419312-2.1013184,2.4934082-2.1304626,4.3098755-2.0852661
		c1.263916,0.0314026,2.4515991,0.1139526,2.7721558,1.4813843
		C581.680481,490.5948486,580.1938477,491.3230591,578.2654419,491.1132507z M591.4699707,495.4584351
		c-1.7547607-0.2791748-4.3816528-0.6176147-4.1967163-2.999939c0.1272583-1.637146,1.5462036-3.907135,3.8374634-3.3357849
		c1.9198608,0.4786987,3.6002808,1.9180603,5.4039307,2.9418335
		C595.0901489,494.4465942,593.5506592,495.7894592,591.4699707,495.4584351z M603.1295166,502.8599854
		c-2.28125,0.0568848-4.6088257-1.62854-5.119812-3.4635315c-0.562561-2.0203247,2.09552-3.2555542,3.8344116-3.4144897
		c2.2319336-0.2041321,3.9174194,1.5759583,5.4213257,3.2508545
		C606.3034668,500.967926,605.1461182,502.8096008,603.1295166,502.8599854z M609.828064,508.9696045
		c-1.3521729-1.3802795-2.2344971-2.3654785-0.4829102-4.2011719c4.0842285-4.2803955,6.4127197,0.0125427,10.2581177,2.0648499
		C616.1419067,509.4798279,613.8621216,513.0874023,609.828064,508.9696045z M621.4278564,517.6732178
		c-1.1617432-1.0811157-4.2520752-1.626709-1.8764648-4.1921387c4.3538818-4.7017822,8.1984863-2.3895569,12.083313,1.2994385
		C628.9368896,518.3631592,626.4871216,522.3813477,621.4278564,517.6732178z M638.4849854,527.2114868
		c-2.6955566-0.2863159-6.7084351-1.3374023-7.0358887-4.2488403c-0.2576294-2.2907715,3.0454102-4.8128662,5.6426392-5.12323
		c2.5410767-0.3035889,4.8850708,1.690979,6.9899902,3.4606934
		C642.3495483,524.0018311,641.6777954,527.5505371,638.4849854,527.2114868z M656.9308472,526.7253418
		c-0.5959473,2.9190063-2.5133667,6.0628052-6.7692871,4.9133911c-1.9442749-0.5251465-5.2325439-0.4594727-4.1305542-3.380249
		c0.7983398-2.1156006,1.9275513-6.0263062,6.1081543-4.3959961
		C653.8093872,524.8891602,657.6325684,523.2877197,656.9308472,526.7253418z M672.112793,529.1005249
		c-2.2042236,6.8088379-7.4398804,3.3375854-11.854248,3.8286133c1.508728-6.0229492,4.9559326-8.2654419,10.5230103-7.2719116
		C673.1032104,526.0715942,672.5232544,527.8325806,672.112793,529.1005249z M677.3457642,530.829895
		c-0.2698975-8.9147949,7.3075562-8.2338257,12.458313-10.6376343
		C690.5704346,528.552063,689.7846069,529.2177734,677.3457642,530.829895z M706.3638306,519.0362549
		c-3.4223633,1.8009033-6.333313,4.7242432-10.6625977,5.0452881c-2.0563965-8.2766113,4.4385376-9.6676636,8.56604-12.6622009
		c1.9168701-1.3907166,2.329834,0.5036316,2.8596802,1.9031067
		C707.9140625,515.4016113,709.2244873,517.5309448,706.3638306,519.0362549z M715.0472412,513.0303955
		c-1.7236328,1.432373-2.6037598,0.0079346-3.284668-1.438446c-1.5336304-3.257843-1.5199585-6.205719,1.9030151-8.2713928
		c1.9306641-1.1651306,2.6474609-5.0350037,5.5316772-3.5367126c1.7012939,0.8838501,2.4501343,3.6010437,3.7958374,5.7646484
		C721.1760254,508.9256897,717.8294067,510.7185364,715.0472412,513.0303955z M727.5755615,501.2102661
		c-7.1973267-6.6010742-2.8012695-11.0848694,2.0632935-15.5656433
		C735.7524414,492.7726746,735.7524414,492.7726746,727.5755615,501.2102661z M736.9746704,473.3193054
		c1.5490112-2.1096497,2.3009033-1.7174377,3.828064-0.1737976c5.9456177,6.0101013-1.8217773,8.7537537-2.1974487,13.5763855
		C731.7620239,482.262085,733.539917,477.9970703,736.9746704,473.3193054z M751.9550171,487.8178406
		c-1.8190918,5.2172241-5.0530396,7.7654724-11.6166382,5.5982971c1.8392944-3.3201599,3.5443726-6.3096313,5.1630249-9.3450928
		c1.5846558-2.9715271,3.5508423-1.4613647,5.6881104-0.7694397
		C754.6611938,484.4255981,752.5471802,486.1196594,751.9550171,487.8178406z M751.5096436,453.6647339
		c-2.0477295-0.7030029-4.2279053-1.5183411-3.9945679-4.3768005c0.109436-1.3396606,0.8145142-2.6471863,2.1984863-2.1245728
		c1.9209595,0.7255249,4.2089844,1.5523987,3.9915161,3.4477539
		C753.3696289,452.7946167,753.25,454.2621765,751.5096436,453.6647339z"/>
	<path d="M772.501709,272.9873657c-71.5015259,0.1415405-143.003479,0.095459-214.505249,0.0993042
		c-1.4993896,0.0000916-3.0041504-0.019165-4.4971924,0.0934448c-5.1987305,0.392334-7.5480347,3.4493408-7.5008545,8.4412537
		c0.0713501,7.5630798,5.0195313,8.646759,11.2132568,8.6409912c72.001709-0.0674438,144.0037231-0.0931702,216.005127,0.0700073
		c4.9189453,0.0110779,8.5969238-1.4438477,11.7832031-4.8660583c0-2.5018616,0-5.0036621,0-7.5055237
		C781.7546387,273.9759216,777.5941162,272.9772644,772.501709,272.9873657z"/>
	<path d="M397.5447388,289.5464478c-4.8649597,0.5871887-4.6699829,2.8503113-4.848938,6.2980652
		c-0.2150269,4.1433411,1.6197815,5.0111694,5.3355103,4.9402466c14.2476196-0.2721863,25.5215759-5.1791992,31.4175415-19.5205078
		c0.5778503,2.7344055,0.5412903,5.131012,0.5843506,7.526123c0.1707764,9.4983826,2.6837463,12.1533508,11.9270325,12.3158875
		c6.4952393,0.1142578,13.0042419-0.1983643,19.4880981,0.0970459c4.3809204,0.1995239,5.4023132-1.5609436,5.4526062-5.6634216
		c0.053772-4.3760681-1.5114441-5.67276-5.6602173-5.4177856c-4.730072,0.2906189-9.4989014-0.0956726-14.2377014,0.1132202
		c-3.5598145,0.1569519-4.6699829-1.2199097-4.841217-4.7427979c-0.2558899-5.2640381,0.4196167-8.7332458,7.0456848-7.8423462
		c3.927948,0.5281982,7.9843445,0.0697327,11.981842,0.1292725c1.4269104,0.0212708,3.7040405-0.2179565,3.68927,1.5429077
		c-0.0540466,6.4613342,4.590271,4.5132141,7.8823853,4.5933838c6.9930115,0.1703186,13.992981,0.0534973,20.9901123,0.0517578
		c9.9353027-0.0025635,9.9353027-0.0035706,9.1907959-10.2188721c6.2582397-1.8937988,12.8491821-2.7497253,18.5637207,0.4402466
		c2.3394775,1.3059387-7.8137817,13.3902893-13.618866,15.3427124c-0.4689331,0.1577759-0.9841003,0.3685913-1.4503479,0.3152771
		c-6.9552612-0.7967224-5.1694946,4.3235779-5.0733948,7.8533325c0.1552124,5.6956787,4.431488,3.0685425,7.2426758,3.1516418
		c3.0751343,0.0907898,6.4648132-0.5081177,8.4613953-2.5039673c5.8302612-5.8283386,10.6201782-5.4785461,15.8621826,0.7310181
		c1.3571167,1.6077576,3.9605103,2.9959106,7.5204468,2.370575c-1.6365967-3.8543701,1.930603-8.697052-2.4050293-11.6943054
		c-6.0360718-4.1726685-5.8234253-8.9929199-4.2337646-15.4554443c2.8407593-11.5491028,1.3954468-12.8511963-10.0904541-12.8520203
		c-4.5019531-0.0002747-9.0153198,0.199707-13.5024414-0.0578308c-4.1401367-0.2376709-6.9059753,0.417511-6.1325989,5.5301208
		c0.315094,2.0834351-0.1940613,4.1119995-2.8602905,4.0990906c-0.6029663-0.1928711-1.302948-0.1383362-2.0131836-0.0274048
		c-2.3607788-0.0269165-4.7234802,0.0162354-7.0868225,0.0798035c-3.4516296-0.0490112-6.914032,0.1391907-10.3736267,0.233551
		c-4.9896545,0.0117188-9.9715881-0.2383118-14.9311829-1.2471313c-0.0119934-0.0032043-0.0239868-0.0053101-0.0360107-0.0085449
		c0.4399719-4.5851135,0.907959-9.5827332-4.4214172-11.4705811c-4.4407349-1.5730286-7.8872986,0.047821-10.1062622,4.9859009
		c-1.6377869,3.6444702-8.3078613,2.9248657-9.8239746-0.9648743c-0.9026489-2.3158875-1.9680176-2.8808899-4.1536255-3.29245
		c-7.1874084-1.353241-11.5710754,7.0452271-18.8050537,5.1998291c-0.285675,1.175293-0.7027283,2.3358459-0.8370667,3.5282898
		C416.8428955,283.9642944,413.6680603,287.6005249,397.5447388,289.5464478z M456.1991272,264.4801331
		c0.2249451-2.039917,1.4315796-3.0924683,3.4984436-3.0217285c2.4423218,0.0836487,3.3025513,1.7450867,3.7918091,3.5980225
		c-0.7057495,2.3141479-1.828949,3.9518433-4.2268372,3.6736145
		C456.8799744,268.4535217,455.9458923,266.7776794,456.1991272,264.4801331z"/>
	<path d="M357.3177185,279.3925171c4.0298462,0.2361145,7.9162903,1.3664246,8.5031128-5.628418
		c0.5044556-6.013031,6.8064575-2.6282959,10.4547119-2.9423828c4.2595825-0.3667603,2.7469482,2.8917236,2.2593384,5.2566223
		c-1.9346619,9.3830261-6.3376465,12.9187317-18.3287354,13.7351685c-3.5479126,0.2416077-5.3375244,1.2936707-4.4855347,4.7431946
		c0.6087952,2.4651184-2.4558105,6.3440552,2.4715271,7.3002014c11.40271,2.2129211,26.3751221-6.9416809,30.727356-18.0610046
		c1.6903992-4.3189087-0.7720947-10.7821655,3.7066956-12.7438354c4.2078247-1.8430481,9.801178-0.5229797,14.7848511-0.5940857
		c0.2494812-0.0035706,0.5041809-0.0340576,0.7477112,0.0040283c4.8071289,0.7518616,6.3995056-1.1077576,6.3474731-6.0927429
		c-0.0493164-4.7154236-1.5346375-5.9426575-6.0412598-5.744873c-7.9679565,0.3497314-15.9622803,0.098053-23.9456177,0.0975037
		c-5.7380066-0.0005493-11.4760132-0.0005493-17.2139893-0.0005493
		c-13.3239746,0.0000916-13.4682922,0.0037537-13.1328735,13.2358398
		C354.2380066,274.5421448,351.6917725,279.0629578,357.3177185,279.3925171z"/>
	<path d="M106.5428391,438.5789795c11.0350266,0.2333679,20.7510834-9.2452087,20.7577744-20.2505493
		c0.0065002-10.6984253-9.256218-20.0949097-19.9905472-20.2791748
		c-11.0524368-0.1897278-20.1956863,8.5223389-20.4769592,19.5112915
		C86.5365372,429.1498718,95.1526031,438.3380127,106.5428391,438.5789795z"/>
	<path d="M164.3305206,438.5805359c11.1653137,0.0071411,20.430603-9.4354248,20.2404938-20.6278381
		c-0.1846161-10.8670959-9.364151-19.9023438-20.2217102-19.903717
		c-10.7509155-0.0013733-20.0846405,9.1333618-20.3188171,19.8857422
		C143.7909851,428.9350281,153.2678223,438.5733948,164.3305206,438.5805359z"/>
	<path d="M135.5926208,451.8904114c4.775528,0.1676636,7.4895935-3.1730042,8.391861-8.1113281
		c-0.7226868-4.3451843-2.9184723-7.839325-7.8697205-8.0869751c-4.8982086-0.2451782-8.1116943,2.6229248-8.4823914,7.4500122
		C127.2239227,448.4608765,130.5717316,451.7142334,135.5926208,451.8904114z"/>
</g>
</svg>
